<?xml version="1.0" encoding="utf-8"?>
<!-- Generator: Adobe Illustrator 28.2.0, SVG Export Plug-In . SVG Version: 6.00 Build 0)  -->
<svg version="1.1" id="Layer_1" xmlns="http://www.w3.org/2000/svg" xmlns:xlink="http://www.w3.org/1999/xlink" x="0px" y="0px"
	 viewBox="0 0 574 572" style="enable-background:new 0 0 574 572;" xml:space="preserve">
<style type="text/css">
	.st0{opacity:0.3;fill:none;stroke:#FAFAFA;enable-background:new    ;}
	.st1{fill:#FAFAFA;}
	.st2{clip-path:url(#SVGID_00000026139264123356321210000010886591845150436523_);}
	.st3{fill:url(#SVGID_00000145029263253549544780000007868834256157362837_);}
	.st4{opacity:0.2;fill:#FFE98F;enable-background:new    ;}
	.st5{opacity:0.15;fill:#FFE98F;enable-background:new    ;}
	.st6{opacity:0.3;fill:#FFE98F;enable-background:new    ;}
	.st7{fill:#FFFDEB;}
</style>
<circle class="st0" cx="296" cy="535" r="23.5"/>
<circle class="st1" cx="296" cy="535" r="4"/>
<g>
	<defs>
		<rect id="SVGID_1_" x="9.3" y="19" width="528.5" height="528.5"/>
	</defs>
	<clipPath id="SVGID_00000056400214179257412940000000220716402851744158_">
		<use xlink:href="#SVGID_1_"  style="overflow:visible;"/>
	</clipPath>
	<g style="clip-path:url(#SVGID_00000056400214179257412940000000220716402851744158_);">
		
			<radialGradient id="SVGID_00000004538140252160354310000003359373403477308073_" cx="-7064.6338" cy="1362.4369" r="1.6726" gradientTransform="matrix(229.4999 206.4998 206.4998 -229.4999 1340095.25 1771613.625)" gradientUnits="userSpaceOnUse">
			<stop  offset="0" style="stop-color:#FFE98F"/>
			<stop  offset="1" style="stop-color:#A20147"/>
		</radialGradient>
		<path style="fill:url(#SVGID_00000004538140252160354310000003359373403477308073_);" d="M537.9,283.2c0,46-11.7,89.1-32.4,126.8
			c-14.4,26.1-33,49.5-54.9,69.4c-46.8,42.3-108.9,68.1-177.1,68.1c-30.3,0-59.2-5-86.3-14.4c-26.9-9.4-51.9-22.7-74.1-39.8
			c-22.7-17.4-42.7-38.5-58.7-62.2c-18.9-27.9-32.6-59.7-39.6-93.8c-3.5-17.6-5.4-35.6-5.4-54c0-8.7,0.3-17.2,1.2-25.6
			C15,210,32.4,165.8,59,129C107,62.3,185.3,19,273.6,19c31.4,0,61.7,5.5,89.7,15.6c44,15.9,82.6,43.2,112.2,78.3
			c19.4,22.9,34.8,49.2,45.5,77.8c5,13.2,8.9,27.1,11.7,41.3C536.2,248.4,537.9,265.7,537.9,283.2z"/>
		<path class="st4" d="M521.1,190.6c-17.4-0.2-42.5,1-62.4,8c-34.1,12-93.5,72.1-156.7,91c-63.2,18.9-131.5,3.8-184,5.7
			c-38,1.3-81.8,27.6-103.2,42c-3.7-17.6-5.5-35.6-5.5-54c0-8.7,0.3-17.2,1.2-25.6c20.2,0.2,58.9-2.7,106.9-21.1
			c72.1-27.8,77.8-68.9,164.9-80.3c87.3-11.4,152.4-14.9,173.8-27.8c6.9-4.2,13.5-9.9,19.2-15.6C494.9,135.7,510.4,162,521.1,190.6z
			"/>
		<path class="st5" d="M537.9,283.2c0,46-11.7,89.1-32.4,126.8c-33.8,8.2-62.4,8.2-108,5.4c-70.2-4.5-171.9,20.9-190.3,25.3
			c-15.4,3.7-71.9,33.1-94,52.7c-22.7-17.4-42.7-38.5-58.7-62.2c43.2-0.5,107.2-4.2,146.4-19.4c63.2-24.6,163.7-89.1,206.1-120.8
			c35.8-26.8,82.8-55.7,125.9-59C536.2,248.4,537.9,265.7,537.9,283.2z"/>
		<path class="st5" d="M450.7,479.4c-46.8,42.3-108.9,68.1-177.1,68.1c-30.3,0-59.2-5-86.3-14.4c17.9-9.2,46.8-22.7,81.3-33.6
			c58.2-18.4,123.9-15.9,158.7-17.7C436,481.3,443.9,480.4,450.7,479.4z"/>
		<path class="st6" d="M363.2,34.5c-23.9,13.5-64.2,36.1-78.9,41.3c-21.4,7.5-113.2,8.9-156.7,17.1c-24.8,4.7-50.7,21.9-68.6,36
			C107,62.3,185.3,19,273.6,19C305,19,335.3,24.5,363.2,34.5z"/>
		<path class="st7" d="M218.8,85.2c34-9.7,58.8-27.3,55.4-39.4c-3.4-12.1-33.8-14.1-67.8-4.4c-34,9.7-58.8,27.3-55.4,39.4
			C154.4,92.9,184.8,94.9,218.8,85.2z"/>
		<path class="st7" d="M293.2,44.8c6.2-0.3,11-3.5,10.8-7.1c-0.2-3.6-5.4-6.2-11.5-5.9c-6.2,0.3-11,3.5-10.8,7.1
			C281.8,42.5,287,45.2,293.2,44.8z"/>
	</g>
</g>
</svg>
