<!DOCTYPE svg PUBLIC "-//W3C//DTD SVG 1.1//EN" "http://www.w3.org/Graphics/SVG/1.1/DTD/svg11.dtd">
<!-- Uploaded to: SVG Repo, www.svgrepo.com, Transformed by: SVG Repo Mixer Tools -->
<svg fill="#8f8f8f" version="1.1" id="icon" xmlns="http://www.w3.org/2000/svg" xmlns:xlink="http://www.w3.org/1999/xlink" width="64px" height="64px" viewBox="0 0 32.00 32.00" xml:space="preserve" stroke="#8f8f8f" stroke-width="0.00032">
<g id="SVGRepo_bgCarrier" stroke-width="0"/>
<g id="SVGRepo_tracerCarrier" stroke-linecap="round" stroke-linejoin="round" stroke="#CCCCCC" stroke-width="0.512"/>
<g id="SVGRepo_iconCarrier"> <style type="text/css"> .st0{fill:none;} </style> <title>document</title> <path d="M25.7,9.3l-7-7C18.5,2.1,18.3,2,18,2H8C6.9,2,6,2.9,6,4v24c0,1.1,0.9,2,2,2h16c1.1,0,2-0.9,2-2V10C26,9.7,25.9,9.5,25.7,9.3 z M18,4.4l5.6,5.6H18V4.4z M24,28H8V4h8v6c0,1.1,0.9,2,2,2h6V28z"/> <rect x="10" y="22" width="12" height="2"/> <rect x="10" y="16" width="12" height="2"/> <rect class="st0" width="32" height="32"/> </g>
</svg>