<?xml version="1.0" encoding="utf-8"?>
<!-- Generator: Adobe Illustrator 24.3.0, SVG Export Plug-In . SVG Version: 6.00 Build 0)  -->
<svg version="1.1" id="Calque_1" xmlns="http://www.w3.org/2000/svg" xmlns:xlink="http://www.w3.org/1999/xlink" x="0px" y="0px" viewBox="0 0 100 30" style="enable-background:new 0 0 100 30;" xml:space="preserve">
	<style type="text/css">
		.st0{fill:#248F90;}
		.st1{fill:#D0B60C;}
		.st2{fill:#C81617;}
		.st3{fill:#2C2C70;}
	</style>
	<circle class="st0" cx="12.2" cy="14.8" r="12.2"/>
	<circle class="st1" cx="40.2" cy="14.8" r="12.2"/>
	<circle class="st2" cx="68.4" cy="15.2" r="12.2"/>
	<g>
		<path class="st3" d="M96.6,12.7v-0.6c0-0.7-0.4-1.1-1-1.1c-0.7,0-1,0.4-1,1.1c0,0.3,0,0.5,0.1,0.6H96.6z"/>
		<path class="st3" d="M97.7,27.4h2.3v-2.3C99.6,26.2,98.8,27,97.7,27.4z"/>
		<path class="st3" d="M92.3,23.7c0-2.2,1.8-4,4-4c1.7,0,3.1,1.1,3.7,2.5V2.6H84.5v24.8h10.3C93.3,26.8,92.3,25.4,92.3,23.7zM99.9,18h-6.1v-3.2h0.9V17h1.7v-2.1h0.9V17h2.6V18z M94.2,10.5c0.3-0.3,0.7-0.5,1.2-0.5c0.8,0,1.3,0.5,1.5,1h0c0.2-0.4,0.6-0.6,1.2-0.8c0.8-0.2,1.5-0.3,1.7-0.4v1.1c-0.2,0.1-0.7,0.2-1.4,0.4c-0.8,0.2-1.1,0.4-1.1,1v0.5h2.5v1h-6c-0.1-0.4-0.1-1-0.1-1.6C93.7,11.4,93.9,10.8,94.2,10.5z"/>
	</g>
</svg>
