<svg width="46" height="46" viewBox="0 0 46 46" fill="none" xmlns="http://www.w3.org/2000/svg">
<path d="M34.6692 4C35.001 3.99968 35.3226 4.11412 35.5796 4.32392L35.7234 4.45808L41.9966 11.2239L42.0541 11.2968C42.2496 11.5574 42.3378 11.8526 42.3378 12.1401L42.3339 15.8201C42.3339 17.7253 41.6094 19.4617 40.4173 20.7651V40.8958C40.4173 41.2432 40.2915 41.5788 40.0631 41.8406C39.8348 42.1024 39.5194 42.2727 39.1753 42.3199L38.9798 42.3333H7.36053C7.01282 42.3338 6.67674 42.2082 6.41455 41.9798C6.15235 41.7515 5.98181 41.4358 5.93453 41.0913L5.92303 40.8958L5.91919 20.767C4.78615 19.5266 4.11415 17.9342 4.01594 16.2571L4.00253 15.8201V12.2225C3.9861 11.9495 4.05007 11.6776 4.18653 11.4405L4.31111 11.2584L4.38778 11.1703L10.615 4.46C10.84 4.21714 11.142 4.0594 11.4699 4.01342L11.6692 4H34.6692ZM29.0764 20.1805L29.0534 20.215C28.37 21.1311 27.4822 21.875 26.4607 22.3874C25.4391 22.8998 24.3121 23.1667 23.1692 23.1667C22.0192 23.1673 20.8851 22.8978 19.8584 22.3797C18.8317 21.8617 17.941 21.1097 17.2582 20.1843C16.5758 21.1092 15.6857 21.8609 14.6597 22.3789C13.6337 22.8969 12.5004 23.1667 11.351 23.1667C10.4521 23.1667 9.59153 23.0057 8.79419 22.7105L8.79611 39.4583H11.6692V26.5247C11.6693 26.177 11.7953 25.8412 12.0241 25.5793C12.2528 25.3175 12.5686 25.1474 12.9131 25.1006L13.1067 25.0833H21.724C22.0714 25.0833 22.407 25.2091 22.6688 25.4375C22.9306 25.6658 23.1009 25.9812 23.1481 26.3253L23.1615 26.5208V39.4545H37.5404V22.7086C36.0461 23.2628 34.4121 23.3157 32.8852 22.8593C31.3583 22.4028 30.0213 21.4619 29.0764 20.1786M20.2846 27.9583H14.5442V39.4545H20.2846V27.9583ZM33.2413 25.0833C33.5886 25.0833 33.9243 25.2091 34.1861 25.4375C34.4479 25.6658 34.6181 25.9812 34.6654 26.3253L34.6788 26.5208V33.233C34.6788 33.5804 34.553 33.916 34.3246 34.1778C34.0963 34.4396 33.7809 34.6098 33.4368 34.6571L33.2413 34.6705H26.531C26.1837 34.6705 25.848 34.5447 25.5862 34.3164C25.3244 34.088 25.1542 33.7726 25.1069 33.4285L25.0935 33.233V26.5208C25.0935 26.1735 25.2193 25.8378 25.4477 25.576C25.676 25.3143 25.9914 25.144 26.3355 25.0967L26.531 25.0833H33.2413ZM31.8038 27.9583H27.9666V31.7955H31.8019L31.8038 27.9583ZM15.8188 13.5872H6.87944V15.8201L6.89286 16.1459L6.94653 16.5906L7.00978 16.8896L7.10561 17.2193L7.20911 17.5029L7.28578 17.6831C7.34583 17.8134 7.41164 17.9399 7.48319 18.0626L7.68061 18.3731L7.78411 18.5149L8.03136 18.8139L8.30353 19.0899L8.48753 19.2528L8.56803 19.318C9.17178 19.7972 9.90011 20.1268 10.6994 20.2438L11.0444 20.2802L11.351 20.2897C12.4841 20.2909 13.5753 19.8612 14.4034 19.0879C15.2315 18.3146 15.7348 17.2553 15.8111 16.1248L15.8226 15.8182L15.8188 13.5872ZM27.635 13.5872H18.6957V15.8201C18.6957 18.0818 20.3785 19.9543 22.5616 20.2495L22.8606 20.2802L23.1673 20.2897C24.3004 20.2909 25.3915 19.8612 26.2196 19.0879C27.0478 18.3146 27.551 17.2553 27.6274 16.1248L27.6389 15.8182L27.635 13.5872ZM39.4551 13.5872H30.5139L30.5158 15.8201C30.5158 18.0818 32.1986 19.9543 34.3798 20.2495L34.6807 20.2802L34.9874 20.2897C36.0684 20.2897 37.0593 19.9064 37.8336 19.2663L38.0061 19.1168L38.2284 18.9002L38.5083 18.5743C38.6118 18.4427 38.7076 18.3047 38.7958 18.1603L38.9951 17.8038L39.1159 17.5393L39.227 17.2423L39.2845 17.0583L39.3574 16.7669L39.411 16.466L39.4455 16.1459L39.457 15.8201L39.4551 13.5872ZM17.538 6.87308H12.2959L8.73669 10.7122H16.3593L17.538 6.87308ZM25.7931 6.87308H20.5453L19.3646 10.7122H26.9738L25.7931 6.87308ZM34.0405 6.87308H28.8004L29.981 10.7122H37.6017L34.0405 6.87308Z" fill="url(#paint0_linear_1_613)"/>
<defs>
<linearGradient id="paint0_linear_1_613" x1="4" y1="23.1667" x2="42.3378" y2="23.1667" gradientUnits="userSpaceOnUse">
<stop stop-color="#17C0EE"/>
<stop offset="1" stop-color="#70E77C"/>
</linearGradient>
</defs>
</svg>
