<svg width="51" height="51" viewBox="0 0 51 51" fill="none" xmlns="http://www.w3.org/2000/svg">
<path d="M33.5548 4.74036L34.4682 7.55174C34.7515 8.40685 35.231 9.18383 35.8682 9.82058C36.5054 10.4573 37.2827 10.9362 38.138 11.2189L40.952 12.1324L41.0071 12.1481C41.224 12.2244 41.4118 12.3662 41.5446 12.5538C41.6775 12.7414 41.7488 12.9656 41.7488 13.1955C41.7488 13.4254 41.6775 13.6496 41.5446 13.8372C41.4118 14.0248 41.224 14.1665 41.0071 14.2429L38.1957 15.1564C37.3399 15.4387 36.5621 15.9174 35.9244 16.5542C35.2867 17.1909 34.8069 17.9681 34.5234 18.8235L33.6099 21.6322C33.5335 21.8491 33.3918 22.0369 33.2042 22.1697C33.0166 22.3026 32.7924 22.3739 32.5625 22.3739C32.3326 22.3739 32.1084 22.3026 31.9208 22.1697C31.7332 22.0369 31.5915 21.8491 31.5151 21.6322L30.6016 18.8235C30.3202 17.9652 29.8413 17.1849 29.2035 16.5452C28.5657 15.9056 27.7868 15.4245 26.9293 15.1406L24.1153 14.2271C23.8984 14.1508 23.7106 14.009 23.5778 13.8214C23.4449 13.6338 23.3736 13.4096 23.3736 13.1797C23.3736 12.9499 23.4449 12.7256 23.5778 12.538C23.7106 12.3504 23.8984 12.2087 24.1153 12.1324L26.9293 11.2189C27.7744 10.9289 28.5407 10.4468 29.1679 9.81045C29.7951 9.17412 30.2661 8.40095 30.5439 7.55174L31.4574 4.74299C31.5332 4.52524 31.6748 4.33648 31.8627 4.2029C32.0507 4.06933 32.2755 3.99756 32.5061 3.99756C32.7366 3.99756 32.9615 4.06933 33.1494 4.2029C33.3373 4.33648 33.479 4.52261 33.5548 4.74036ZM46.4304 25.5619L44.4222 24.9109C43.8111 24.7076 43.2558 24.3648 42.8001 23.9096C42.3445 23.4544 42.0011 22.8994 41.7972 22.2885L41.1463 20.283C41.0919 20.1279 40.9907 19.9936 40.8567 19.8986C40.7227 19.8035 40.5624 19.7525 40.3981 19.7525C40.2338 19.7525 40.0736 19.8035 39.9396 19.8986C39.8055 19.9936 39.7043 20.1279 39.65 20.283L38.9937 22.2885C38.7944 22.8946 38.4578 23.4466 38.0102 23.9014C37.5627 24.3563 37.0162 24.7017 36.4134 24.9109L34.4052 25.5619C34.2514 25.6174 34.1184 25.719 34.0244 25.8529C33.9304 25.9868 33.8799 26.1464 33.8799 26.31C33.8799 26.4736 33.9304 26.6332 34.0244 26.7671C34.1184 26.9009 34.2514 27.0026 34.4052 27.0581L36.4134 27.7117C37.0253 27.9158 37.5812 28.2598 38.0369 28.7164C38.4926 29.173 38.8355 29.7296 39.0384 30.342L39.6894 32.3475C39.7437 32.5025 39.8449 32.6369 39.9789 32.7319C40.113 32.827 40.2732 32.878 40.4375 32.878C40.6018 32.878 40.762 32.827 40.8961 32.7319C41.0301 32.6369 41.1313 32.5025 41.1856 32.3475L41.8393 30.342C42.0429 29.7314 42.3859 29.1765 42.841 28.7214C43.2962 28.2662 43.851 27.9232 44.4616 27.7196L46.4698 27.0686C46.6236 27.0131 46.7566 26.9114 46.8506 26.7776C46.9446 26.6437 46.9951 26.4841 46.9951 26.3205C46.9951 26.1569 46.9446 25.9973 46.8506 25.8634C46.7566 25.7295 46.6236 25.6279 46.4698 25.5724L46.4304 25.5619ZM36.5 31.5626V31.0639L36.5367 31.161L37.2193 33.2662C37.4818 33.9225 37.9018 34.4737 38.4819 34.8937C38.6096 34.9812 38.7409 35.06 38.8756 35.13C38.3619 37.4664 37.0657 39.5574 35.2016 41.0568C33.3375 42.5562 31.0173 43.3741 28.625 43.3751H19.4375C18.4187 43.3751 17.4139 43.1379 16.5027 42.6823C15.5914 42.2267 14.7988 41.5651 14.1875 40.7501H28.625C30.7136 40.7501 32.7166 39.9204 34.1935 38.4436C35.6703 36.9667 36.5 34.9637 36.5 32.8751V31.8592V31.5626ZM20.981 11.8751H14.1875C12.447 11.8751 10.7778 12.5665 9.54711 13.7972C8.3164 15.0279 7.625 16.6971 7.625 18.4376V31.5626C7.625 33.3031 8.3164 34.9723 9.54711 36.203C10.7778 37.4337 12.447 38.1251 14.1875 38.1251H27.3125C29.053 38.1251 30.7222 37.4337 31.9529 36.203C33.1836 34.9723 33.875 33.3031 33.875 31.5626V29.649L33.5968 29.5571C32.888 29.2946 32.3105 28.8746 31.8905 28.2971C31.4705 27.7196 31.2605 27.0345 31.2605 26.3231L31.25 26.3074V31.5626C31.25 32.6069 30.8352 33.6084 30.0967 34.3468C29.3583 35.0853 28.3568 35.5001 27.3125 35.5001H14.1875C13.1432 35.5001 12.1417 35.0853 11.4033 34.3468C10.6648 33.6084 10.25 32.6069 10.25 31.5626V18.4376C10.25 17.3933 10.6648 16.3918 11.4033 15.6534C12.1417 14.915 13.1432 14.5001 14.1875 14.5001H15.5V15.8126C15.5 16.8569 15.9148 17.8584 16.6533 18.5968C17.3917 19.3353 18.3932 19.7501 19.4375 19.7501H28.1157L28.0816 19.6451C27.8454 19.0414 27.6091 18.7001 27.3204 18.4114C26.9679 18.0709 26.5462 17.8104 26.084 17.6475L24.5037 17.1251H19.4375C19.0894 17.1251 18.7556 16.9868 18.5094 16.7407C18.2633 16.4945 18.125 16.1607 18.125 15.8126V14.5001H20.9863C20.8268 14.0774 20.7468 13.6289 20.75 13.1771C20.75 12.7221 20.827 12.2881 20.981 11.8751Z" fill="url(#paint0_linear_12_1013)"/>
<defs>
<linearGradient id="paint0_linear_12_1013" x1="7.625" y1="23.6863" x2="46.9951" y2="23.6863" gradientUnits="userSpaceOnUse">
<stop stop-color="#17C0EE"/>
<stop offset="1" stop-color="#70E77C"/>
</linearGradient>
</defs>
</svg>
