<svg width="42" height="42" viewBox="0 0 42 42" fill="none" xmlns="http://www.w3.org/2000/svg">
<path d="M3.2915 0.166504C2.4627 0.166504 1.66785 0.495744 1.0818 1.0818C0.495744 1.66785 0.166504 2.4627 0.166504 3.2915V30.3748C0.166504 31.2036 0.495744 31.9985 1.0818 32.5845C1.66785 33.1706 2.4627 33.4998 3.2915 33.4998H14.7498V26.5915C14.7498 25.0019 15.4082 23.4873 16.5707 22.404L25.1665 14.3769V13.7082C25.1665 12.8794 24.8373 12.0845 24.2512 11.4985C23.6652 10.9124 22.8703 10.5832 22.0415 10.5832H18.9165V3.2915C18.9165 2.4627 18.5873 1.66785 18.0012 1.0818C17.4152 0.495744 16.6203 0.166504 15.7915 0.166504H3.2915ZM8.49984 7.979C8.49984 8.39341 8.33522 8.79083 8.04219 9.08386C7.74917 9.37688 7.35174 9.5415 6.93734 9.5415C6.52294 9.5415 6.12551 9.37688 5.83248 9.08386C5.53946 8.79083 5.37484 8.39341 5.37484 7.979C5.37484 7.5646 5.53946 7.16718 5.83248 6.87415C6.12551 6.58112 6.52294 6.4165 6.93734 6.4165C7.35174 6.4165 7.74917 6.58112 8.04219 6.87415C8.33522 7.16718 8.49984 7.5646 8.49984 7.979ZM6.93734 15.7915C6.52294 15.7915 6.12551 15.6269 5.83248 15.3339C5.53946 15.0408 5.37484 14.6434 5.37484 14.229C5.37484 13.8146 5.53946 13.4172 5.83248 13.1242C6.12551 12.8311 6.52294 12.6665 6.93734 12.6665C7.35174 12.6665 7.74917 12.8311 8.04219 13.1242C8.33522 13.4172 8.49984 13.8146 8.49984 14.229C8.49984 14.6434 8.33522 15.0408 8.04219 15.3339C7.74917 15.6269 7.35174 15.7915 6.93734 15.7915ZM8.49984 20.479C8.49984 20.8934 8.33522 21.2908 8.04219 21.5839C7.74917 21.8769 7.35174 22.0415 6.93734 22.0415C6.52294 22.0415 6.12551 21.8769 5.83248 21.5839C5.53946 21.2908 5.37484 20.8934 5.37484 20.479C5.37484 20.0646 5.53946 19.6672 5.83248 19.3742C6.12551 19.0811 6.52294 18.9165 6.93734 18.9165C7.35174 18.9165 7.74917 19.0811 8.04219 19.3742C8.33522 19.6672 8.49984 20.0646 8.49984 20.479ZM12.1457 9.5415C11.7313 9.5415 11.3338 9.37688 11.0408 9.08386C10.7478 8.79083 10.5832 8.39341 10.5832 7.979C10.5832 7.5646 10.7478 7.16718 11.0408 6.87415C11.3338 6.58112 11.7313 6.4165 12.1457 6.4165C12.5601 6.4165 12.9575 6.58112 13.2505 6.87415C13.5436 7.16718 13.7082 7.5646 13.7082 7.979C13.7082 8.39341 13.5436 8.79083 13.2505 9.08386C12.9575 9.37688 12.5601 9.5415 12.1457 9.5415ZM13.7082 14.229C13.7082 14.6434 13.5436 15.0408 13.2505 15.3339C12.9575 15.6269 12.5601 15.7915 12.1457 15.7915C11.7313 15.7915 11.3338 15.6269 11.0408 15.3339C10.7478 15.0408 10.5832 14.6434 10.5832 14.229C10.5832 13.8146 10.7478 13.4172 11.0408 13.1242C11.3338 12.8311 11.7313 12.6665 12.1457 12.6665C12.5601 12.6665 12.9575 12.8311 13.2505 13.1242C13.5436 13.4172 13.7082 13.8146 13.7082 14.229ZM12.1457 22.0415C11.9405 22.0415 11.7373 22.0011 11.5477 21.9226C11.3582 21.844 11.1859 21.729 11.0408 21.5839C10.8957 21.4388 10.7806 21.2665 10.7021 21.0769C10.6236 20.8874 10.5832 20.6842 10.5832 20.479C10.5832 20.2738 10.6236 20.0706 10.7021 19.8811C10.7806 19.6915 10.8957 19.5192 11.0408 19.3742C11.1859 19.2291 11.3582 19.114 11.5477 19.0354C11.7373 18.9569 11.9405 18.9165 12.1457 18.9165C12.5601 18.9165 12.9575 19.0811 13.2505 19.3742C13.5436 19.6672 13.7082 20.0646 13.7082 20.479C13.7082 20.8934 13.5436 21.2908 13.2505 21.5839C12.9575 21.8769 12.5601 22.0415 12.1457 22.0415ZM31.8207 15.6644C31.1456 15.0344 30.2566 14.684 29.3332 14.684C28.4098 14.684 27.5208 15.0344 26.8457 15.6644L17.9915 23.9269C17.6258 24.2682 17.3343 24.681 17.135 25.1398C16.9357 25.5986 16.833 26.0934 16.8332 26.5936V38.7082C16.8332 39.537 17.1624 40.3318 17.7485 40.9179C18.3345 41.5039 19.1294 41.8332 19.9582 41.8332H24.1248C24.9536 41.8332 25.7485 41.5039 26.3345 40.9179C26.9206 40.3318 27.2498 39.537 27.2498 38.7082V33.4998H31.4165V38.7082C31.4165 39.537 31.7457 40.3318 32.3318 40.9179C32.9179 41.5039 33.7127 41.8332 34.5415 41.8332H38.7082C39.537 41.8332 40.3318 41.5039 40.9179 40.9179C41.5039 40.3318 41.8332 39.537 41.8332 38.7082V26.5936C41.8333 26.0934 41.7306 25.5986 41.5313 25.1398C41.332 24.681 41.0405 24.2682 40.6748 23.9269L31.8207 15.6644ZM28.9769 17.9478C29.0735 17.8572 29.2008 17.8069 29.3332 17.8069C29.4655 17.8069 29.5929 17.8572 29.6894 17.9478L38.5436 26.2123C38.5957 26.2612 38.6372 26.3203 38.6655 26.3859C38.6938 26.4514 38.7084 26.5222 38.7082 26.5936V38.7082H34.5415V33.4998C34.5415 32.671 34.2123 31.8762 33.6262 31.2901C33.0402 30.7041 32.2453 30.3748 31.4165 30.3748H27.2498C26.421 30.3748 25.6262 30.7041 25.0401 31.2901C24.4541 31.8762 24.1248 32.671 24.1248 33.4998V38.7082H19.9582V26.5936C19.9583 26.522 19.9731 26.4512 20.0018 26.3856C20.0305 26.32 20.0723 26.261 20.1248 26.2123L28.9769 17.9478Z" fill="url(#paint0_linear_12_1012)"/>
<defs>
<linearGradient id="paint0_linear_12_1012" x1="0.166504" y1="20.9998" x2="41.8332" y2="20.9998" gradientUnits="userSpaceOnUse">
<stop stop-color="#17C0EE"/>
<stop offset="1" stop-color="#70E77C"/>
</linearGradient>
</defs>
</svg>
