<svg width="47" height="46" viewBox="0 0 47 46" fill="none" xmlns="http://www.w3.org/2000/svg">
<path d="M18.6875 11.5V37.375H27.3125V11.5C27.3125 10.7375 27.0096 10.0062 26.4704 9.46707C25.9313 8.9279 25.2 8.625 24.4375 8.625H21.5625C20.8 8.625 20.0687 8.9279 19.5296 9.46707C18.9904 10.0062 18.6875 10.7375 18.6875 11.5ZM15.8125 20.125V11.5C15.8125 9.97501 16.4183 8.51247 17.4966 7.43414C18.575 6.3558 20.0375 5.75 21.5625 5.75H24.4375C25.9625 5.75 27.425 6.3558 28.5034 7.43414C29.5817 8.51247 30.1875 9.97501 30.1875 11.5V14.375H34.5C36.025 14.375 37.4875 14.9808 38.5659 16.0591C39.6442 17.1375 40.25 18.6 40.25 20.125V38.8125C40.25 39.1937 40.0986 39.5594 39.829 39.829C39.5594 40.0986 39.1937 40.25 38.8125 40.25H7.1875C6.80625 40.25 6.44062 40.0986 6.17103 39.829C5.90145 39.5594 5.75 39.1937 5.75 38.8125V25.875C5.75 24.35 6.3558 22.8875 7.43414 21.8091C8.51247 20.7308 9.97501 20.125 11.5 20.125H15.8125ZM15.8125 37.375V23H11.5C10.7375 23 10.0062 23.3029 9.46707 23.8421C8.9279 24.3812 8.625 25.1125 8.625 25.875V37.375H15.8125ZM30.1875 37.375H37.375V20.125C37.375 19.3625 37.0721 18.6312 36.5329 18.0921C35.9938 17.5529 35.2625 17.25 34.5 17.25H30.1875V37.375Z" fill="url(#paint0_linear_1_618)"/>
<defs>
<linearGradient id="paint0_linear_1_618" x1="5.75" y1="23" x2="40.25" y2="23" gradientUnits="userSpaceOnUse">
<stop stop-color="#17C0EE"/>
<stop offset="1" stop-color="#70E77C"/>
</linearGradient>
</defs>
</svg>
