<svg width="48" height="48" viewBox="0 0 48 48" fill="none" xmlns="http://www.w3.org/2000/svg">
<path d="M29.8837 9.18624C30.4059 9.4189 30.8144 9.84944 31.0192 10.3832C31.2241 10.9169 31.2086 11.5102 30.9762 12.0325L19.4762 37.9075C19.365 38.1721 19.2021 38.4118 18.9971 38.6126C18.7921 38.8134 18.549 38.9713 18.2822 39.0769C18.0154 39.1826 17.7301 39.2339 17.4432 39.2279C17.1563 39.2219 16.8734 39.1587 16.6113 39.042C16.3491 38.9252 16.1129 38.7573 15.9164 38.5481C15.72 38.3389 15.5673 38.0926 15.4673 37.8236C15.3672 37.5546 15.3219 37.2683 15.334 36.9816C15.346 36.6948 15.4152 36.4134 15.5375 36.1537L27.0375 10.2787C27.2701 9.75652 27.7006 9.34807 28.2344 9.1432C28.7681 8.93833 29.3614 8.95381 29.8837 9.18624ZM14.3386 16.0144C14.7656 16.3939 15.0245 16.9275 15.0584 17.4978C15.0924 18.0681 14.8986 18.6286 14.5197 19.0561L10.0405 24.0931L14.5197 29.1301C14.8994 29.5579 15.0937 30.119 15.0597 30.6899C15.0257 31.2609 14.7663 31.795 14.3386 32.1747C14.1268 32.3628 13.88 32.5072 13.6124 32.5999C13.3447 32.6925 13.0615 32.7316 12.7788 32.7147C12.2078 32.6808 11.6737 32.4214 11.294 31.9936L5.54395 25.5249C5.19354 25.1303 5 24.6209 5 24.0931C5 23.5654 5.19354 23.056 5.54395 22.6614L11.294 16.1926C11.4822 15.9801 11.7106 15.8069 11.966 15.6829C12.2213 15.5589 12.4987 15.4865 12.7821 15.4699C13.0655 15.4534 13.3494 15.4929 13.6175 15.5864C13.8856 15.6798 14.1326 15.8252 14.3443 16.0144M34.4808 16.0144C34.6924 15.8261 34.939 15.6814 35.2066 15.5885C35.4741 15.4956 35.7573 15.4562 36.0401 15.4728C36.3228 15.4894 36.5995 15.5614 36.8544 15.685C37.1092 15.8085 37.3373 15.981 37.5254 16.1926L43.2754 22.6614C43.6259 23.056 43.8194 23.5654 43.8194 24.0931C43.8194 24.6209 43.6259 25.1303 43.2754 25.5249L37.5254 31.9936C37.1457 32.4214 36.6116 32.6808 36.0407 32.7147C35.4697 32.7487 34.9086 32.5545 34.4808 32.1747C34.0531 31.795 33.7937 31.2609 33.7597 30.6899C33.7257 30.119 33.92 29.5579 34.2997 29.1301L38.7703 24.0931L34.2968 19.0561C33.9179 18.6286 33.7241 18.0681 33.7581 17.4978C33.792 16.9275 34.0538 16.3939 34.4808 16.0144Z" fill="url(#paint0_linear_1_605)"/>
<defs>
<linearGradient id="paint0_linear_1_605" x1="5" y1="24.1142" x2="43.8194" y2="24.1142" gradientUnits="userSpaceOnUse">
<stop stop-color="#17C0EE"/>
<stop offset="1" stop-color="#70E77C"/>
</linearGradient>
</defs>
</svg>
